<?xml version="1.0" encoding="UTF-8"?>
<svg width="18px" height="18px" viewBox="0 0 18 18" version="1.1" xmlns="http://www.w3.org/2000/svg" xmlns:xlink="http://www.w3.org/1999/xlink">
    <!-- Generator: Sketch 55.2 (78181) - https://sketchapp.com -->
    <title>atm/icon/transport/play</title>
    <desc>Created with Sketch.</desc>
    <defs>
        <path d="M15,24 C14.4477153,24 14,23.5522847 14,23 C14,22.4477153 14.4477153,22 15,22 C18.8659932,22 22,18.8659932 22,15 C22,11.1340068 18.8659932,8 15,8 C11.1340068,8 8,11.1340068 8,15 C8,15.5522847 7.55228475,16 7,16 C6.44771525,16 6,15.5522847 6,15 C6,10.0294373 10.0294373,6 15,6 C19.9705627,6 24,10.0294373 24,15 C24,19.9705627 19.9705627,24 15,24 Z" id="path-1"></path>
    </defs>
    <g id="Page-1" stroke="none" stroke-width="1" fill="none" fill-rule="evenodd">
        <g id="Group-18-Copy-4" transform="translate(-60.000000, -15.000000)">
            <g id="atm/icon/status/cloud/activity" transform="translate(54.000000, 9.000000)">
                <mask id="mask-2" fill="white">
                    <use xlink:href="#path-1"></use>
                </mask>
                <g id="mask" fill-rule="nonzero"></g>
                <g id="atm/mixin/fill/white-100%" mask="url(#mask-2)" fill="#FFFFFF" fill-rule="evenodd">
                    <rect id="Rectangle" x="0" y="0" width="30" height="30"></rect>
                </g>
            </g>
        </g>
    </g>
</svg>