<svg viewBox="0 0 30 30" xmlns="http://www.w3.org/2000/svg" fill="rgba(0,0,0,.4)"><path d="M14.0656652,11 L17.7999998,11 C20.1195959,11 22,12.8804041 22,15.2000002 L22,16.7999998 C22,19.1195959 20.1195959,21 17.7999998,21 L12.5208824,21 L12.5208824,19 L17.7999998,19 C19.0150264,19 20,18.0150264 20,16.7999998 L20,15.2000002 C20,13.9849736 19.0150264,13 17.7999998,13 L14.0556651,13 L15.5197284,14.4640633 C16.2409774,15.1853123 15.159104,16.2671857 14.437855,15.5459367 L11.437855,12.5459367 C11.0772305,12.1853123 11.1673867,11.7345317 11.437855,11.4640633 L14.437855,8.46406333 C14.7366061,8.16531224 15.2209773,8.16531224 15.5197284,8.46406333 C15.8184795,8.76281443 15.8184795,9.24718565 15.5197284,9.54593675 L14.0656652,11 Z M9.06066515,12.005 L11.5197284,14.4640633 C12.2409774,15.1853123 11.159104,16.2671857 10.437855,15.5459367 L7.43785502,12.5459367 C7.07723055,12.1853123 7.16738667,11.7345317 7.43785502,11.4640633 L10.437855,8.46406333 C10.7366061,8.16531224 11.2209773,8.16531224 11.5197284,8.46406333 C11.8184795,8.76281443 11.8184795,9.24718565 11.5197284,9.54593675 L9.06066515,12.005 Z" /></svg>